PathFileType	4	(x/y/z)	S04_PSF_T12.trc
DataRate	CameraRate	NumFrames	NumMarkers	Units	OrigDataRate	OrigDataStartFrame	OrigNumFrames
240	240	8	51	mm	240	107	426
Frame#	Time	Sternum			R.Acromium			L.Acromium			Top.Head			R.ASIS			L.ASIS			R.PSIS			L.PSIS			R.Great.Tro			L.Great.Tro			R.Iliac.Crest			L.Iliac.Crest			V.Sacral			R.Thigh.Upper.Post			R.Thigh.Lower.Ant			R.Thigh.Lower.Post			R.Thigh.Upper.Ant			R.Knee.Lat			R.Knee.Med			R.Shank.Upper.Post			R.Shank.Lower.Ant			R.Shank.Lower.Post			R.Shank.Upper.Ant			R.Ankle.Lat			R.Ankle.Med			R.Heel.Upper			R.Heel.Med			R.Heel.Lat			R.Toe.Lat			R.Toe.Med			R.Toe.Tip			L.Thigh.Upper.Post			L.Thigh.Lower.Ant			L.Thigh.Lower.Post			L.Thigh.Upper.Ant			L.Knee.Lat			L.Knee.Med			L.Shank.Upper.Post			L.Shank.Lower.Ant			L.Shank.Lower.Post			L.Shank.Upper.Ant			L.Ankle.Lat			L.Ankle.Med			L.Heel.Upper			L.Heel.Med			L.Heel.Lat			L.Toe.Lat			L.Toe.Med			L.Toe.Tip			Cervical.Spine			Back			
		X1	Y1	Z1	X2	Y2	Z2	X3	Y3	Z3	X4	Y4	Z4	X5	Y5	Z5	X6	Y6	Z6	X7	Y7	Z7	X8	Y8	Z8	X9	Y9	Z9	X10	Y10	Z10	X11	Y11	Z11	X12	Y12	Z12	X13	Y13	Z13	X14	Y14	Z14	X15	Y15	Z15	X16	Y16	Z16	X17	Y17	Z17	X18	Y18	Z18	X19	Y19	Z19	X20	Y20	Z20	X21	Y21	Z21	X22	Y22	Z22	X23	Y23	Z23	X24	Y24	Z24	X25	Y25	Z25	X26	Y26	Z26	X27	Y27	Z27	X28	Y28	Z28	X29	Y29	Z29	X30	Y30	Z30	X31	Y31	Z31	X32	Y32	Z32	X33	Y33	Z33	X34	Y34	Z34	X35	Y35	Z35	X36	Y36	Z36	X37	Y37	Z37	X38	Y38	Z38	X39	Y39	Z39	X40	Y40	Z40	X41	Y41	Z41	X42	Y42	Z42	X43	Y43	Z43	X44	Y44	Z44	X45	Y45	Z45	X46	Y46	Z46	X47	Y47	Z47	X48	Y48	Z48	X49	Y49	Z49	X50	Y50	Z50	X51	Y51	Z51	

107	0.44167	-906.15	1277.2	219.84	-1041.7	1507.8	387.97	-1023.4	1489.9	38.031	-1018	1830	200.27	-935.37	996.16	349.81	-939.69	1008.3	100.39	-1150.3	1029.6	261.78	-1146.4	1038	180.6	-1019	917.21	421.92	-1068.9	929.88	44.371	-1022.5	1089.3	397.44	-1040.1	1090.5	60.991	-1171.9	993.13	220.68	-919.29	672.58	412.64	-820.26	624.65	372.86	-885.18	588.73	396.98	-853.32	729.3	393.9	-839.96	535.12	385.91	-858.59	522.66	257.93	-882.13	304.68	386.72	-802.02	237.43	352.71	-870.81	235.68	373.91	-816.54	306.31	373.52	-838.93	121.01	358.34	-813.99	139.18	272.38	-892.92	78.646	297.43	-873.59	52.061	268.37	-884.94	46.776	331.66	-723.54	68.211	397.05	-676.45	79.612	284.42	-624.49	109.41	337.07	-1120.4	706.15	62.696	-1057.1	597.81	70.292	-1122.8	619.51	73.202	-1056.7	686.64	53.331	-1108.8	513.54	84.446	-1104.3	505.16	207.5	-1222.2	350.61	89.786	-1168.4	253.62	93.759	-1227	273.66	98.199	-1163.1	329.68	84.403	-1217.2	108.1	120.64	-1210.4	116.33	211.73	-1293.5	78.27	163.86	-1287.3	51.313	196.26	-1289.5	51.978	134.81	-1106.3	43.329	96.669	-1075.4	43.312	213.36	-1017.1	51.909	164.01	-1085	1551.1	213.93	-1171.2	1296.6	194.49
108	0.44583	-900.73	1276.3	220.14	-1036.3	1506.8	388.26	-1017.8	1489.1	38.331	-1012.2	1829.1	200.67	-929.97	995.24	349.93	-934.48	1007.4	100.56	-1144.8	1028.8	261.98	-1140.7	1037	180.93	-1013.2	916.31	422.12	-1064	929.25	44.536	-1017.1	1088.4	397.66	-1034.9	1089.7	61.142	-1166.2	992.26	220.92	-914.53	671.55	412.89	-815.38	623.7	373.47	-880.39	587.76	397.31	-848.54	728.31	394.44	-834.54	534.53	386.48	-853.04	521.66	258.4	-871.44	303.26	387.16	-789.68	238.03	353.21	-858.44	234.57	374.34	-805.92	306.5	374	-823.59	120.64	358.7	-798.96	139.44	272.76	-876.58	77.081	297.77	-856.62	50.964	268.72	-867.85	45.405	332.04	-706.97	70.644	397.39	-660.23	83.107	284.73	-608.99	114.19	337.34	-1117	706.08	62.989	-1054.3	597.4	70.569	-1119.8	619.5	73.359	-1053.3	686.23	53.589	-1106.5	513.38	84.568	-1102.1	504.98	207.62	-1220.6	351.12	89.833	-1167.5	253.74	93.892	-1225.9	274.11	98.338	-1161.8	329.79	84.527	-1217.2	108.36	120.87	-1210.1	116.56	211.91	-1293.4	78.648	164.08	-1287.2	51.611	196.44	-1289.4	52.349	135	-1106.3	43.337	96.731	-1075.3	43.167	213.42	-1016.9	51.691	164.03	-1079.4	1550.2	214.2	-1165.6	1295.8	194.61
109	0.45	-895.28	1275.3	220.45	-1030.9	1505.9	388.57	-1012.2	1488.3	38.645	-1006.5	1828.2	201.08	-924.54	994.3	350.06	-929.25	1006.5	100.75	-1139.3	1027.9	262.2	-1134.9	1036.1	181.27	-1007.2	915.38	422.31	-1059.1	928.6	44.702	-1011.6	1087.5	397.88	-1029.6	1088.9	61.304	-1160.5	991.37	221.18	-909.8	670.47	413.16	-810.55	622.68	374.11	-875.63	586.73	397.65	-843.79	727.26	394.99	-829.19	533.9	387.06	-847.55	520.62	258.88	-860.87	301.91	387.57	-777.51	238.72	353.69	-846.2	233.57	374.75	-795.45	306.76	374.47	-808.46	120.44	359.04	-784.17	139.86	273.12	-860.41	75.699	298.09	-839.84	50.06	269.04	-850.94	44.232	332.39	-690.66	73.246	397.69	-644.3	86.772	285.03	-593.81	119.11	337.62	-1113.5	706.01	63.284	-1051.4	596.99	70.842	-1116.8	619.45	73.566	-1049.9	685.82	53.841	-1104.3	513.21	84.692	-1099.8	504.78	207.74	-1219.1	351.63	89.882	-1166.5	253.86	94.026	-1224.9	274.57	98.495	-1160.5	329.89	84.652	-1217.1	108.64	121.1	-1209.8	116.81	212.08	-1293.3	79.061	164.31	-1287.1	51.947	196.62	-1289.3	52.751	135.19	-1106.3	43.342	96.795	-1075.2	43.026	213.46	-1016.8	51.467	164.06	-1073.8	1549.4	214.48	-1160	1294.9	194.75
110	0.45417	-889.82	1274.3	220.77	-1025.4	1504.9	388.9	-1006.7	1487.4	38.974	-1000.8	1827.3	201.5	-919.09	993.35	350.2	-924	1005.5	100.94	-1133.7	1027	262.42	-1129.2	1035.2	181.61	-1001.3	914.41	422.5	-1054.2	927.93	44.871	-1006.2	1086.5	398.12	-1024.3	1088	61.477	-1154.8	990.45	221.45	-905.1	669.36	413.45	-805.74	621.61	374.76	-870.91	585.66	398.01	-839.04	726.17	395.55	-823.89	533.22	387.65	-842.1	519.55	259.36	-850.42	300.64	387.97	-765.52	239.49	354.17	-834.13	232.68	375.14	-785.14	307.05	374.94	-793.55	120.4	359.35	-769.63	140.42	273.46	-844.43	74.491	298.38	-823.27	49.337	269.33	-834.24	43.249	332.72	-674.65	75.994	397.96	-628.68	90.586	285.31	-578.96	124.17	337.89	-1110	705.92	63.58	-1048.5	596.56	71.111	-1113.8	619.36	73.825	-1046.4	685.4	54.085	-1101.9	513.03	84.817	-1097.4	504.57	207.87	-1217.4	352.15	89.935	-1165.5	253.99	94.158	-1223.8	275.02	98.668	-1159.2	330	84.775	-1217	108.92	121.31	-1209.4	117.09	212.25	-1293.2	79.513	164.53	-1286.9	52.323	196.79	-1289.2	53.188	135.37	-1106.3	43.344	96.859	-1075.1	42.89	213.51	-1016.7	51.239	164.07	-1068.2	1548.5	214.78	-1154.4	1294	194.9
111	0.45833	-884.34	1273.3	221.11	-1020	1503.9	389.25	-1001.1	1486.5	39.318	-995.15	1826.4	201.94	-913.61	992.38	350.34	-918.74	1004.6	101.13	-1128.1	1026.1	262.66	-1123.5	1034.2	181.95	-995.3	913.43	422.7	-1049.2	927.25	45.043	-1000.7	1085.5	398.36	-1019	1087.1	61.663	-1149.1	989.52	221.72	-900.4	668.22	413.77	-800.94	620.5	375.43	-866.21	584.56	398.39	-834.3	725.04	396.13	-818.63	532.5	388.24	-836.69	518.44	259.85	-840.09	299.45	388.36	-753.74	240.33	354.64	-822.22	231.89	375.49	-774.97	307.4	375.4	-778.89	120.5	359.64	-755.37	141.11	273.78	-828.67	73.447	298.63	-806.94	48.785	269.59	-817.78	42.445	333.02	-658.95	78.865	398.2	-613.38	94.524	285.59	-564.45	129.32	338.15	-1106.4	705.82	63.876	-1045.5	596.13	71.373	-1110.8	619.22	74.132	-1042.9	684.96	54.323	-1099.5	512.85	84.942	-1095	504.34	207.99	-1215.8	352.68	89.992	-1164.5	254.13	94.286	-1222.7	275.47	98.857	-1157.7	330.11	84.898	-1216.8	109.22	121.5	-1209	117.38	212.4	-1293.1	80.009	164.74	-1286.8	52.743	196.96	-1289.1	53.661	135.55	-1106.2	43.343	96.924	-1075	42.761	213.55	-1016.6	51.006	164.09	-1062.7	1547.6	215.1	-1148.7	1293.2	195.07
112	0.4625	-878.84	1272.3	221.46	-1014.5	1502.8	389.61	-995.57	1485.7	39.678	-989.49	1825.5	202.38	-908.1	991.4	350.48	-913.46	1003.6	101.32	-1122.6	1025.2	262.92	-1117.8	1033.2	182.31	-989.29	912.42	422.89	-1044.2	926.55	45.218	-995.2	1084.5	398.61	-1013.7	1086.3	61.861	-1143.4	988.57	222.02	-895.71	667.05	414.1	-796.15	619.36	376.1	-861.51	583.42	398.78	-829.55	723.87	396.71	-813.4	531.74	388.83	-831.32	517.31	260.33	-829.91	298.33	388.73	-742.16	241.22	355.09	-810.5	231.19	375.82	-764.97	307.77	375.84	-764.5	120.74	359.9	-741.39	141.92	274.07	-813.16	72.556	298.85	-790.88	48.391	269.83	-801.58	41.805	333.29	-643.58	81.834	398.41	-598.43	98.557	285.85	-550.32	134.53	338.41	-1102.8	705.7	64.172	-1042.4	595.69	71.629	-1107.8	619.05	74.481	-1039.3	684.52	54.553	-1097	512.66	85.067	-1092.4	504.09	208.12	-1214	353.21	90.052	-1163.5	254.27	94.411	-1221.6	275.92	99.059	-1156.3	330.22	85.018	-1216.7	109.52	121.68	-1208.7	117.7	212.55	-1293	80.552	164.95	-1286.7	53.209	197.12	-1289	54.172	135.72	-1106.2	43.337	96.989	-1074.9	42.639	213.58	-1016.5	50.769	164.1	-1057.1	1546.7	215.44	-1142.9	1292.2	195.25
113	0.46667	-873.32	1271.3	221.83	-1009	1501.8	389.98	-990.07	1484.8	40.055	-983.83	1824.5	202.84	-902.57	990.4	350.63	-908.17	1002.6	101.52	-1117	1024.2	263.2	-1112.1	1032.3	182.67	-983.28	911.4	423.1	-1039.2	925.84	45.398	-989.66	1083.5	398.87	-1008.4	1085.4	62.073	-1137.7	987.61	222.33	-890.99	665.87	414.46	-791.36	618.18	376.77	-856.81	582.26	399.18	-824.78	722.67	397.3	-808.19	530.97	389.43	-825.96	516.17	260.81	-819.86	297.29	389.08	-730.8	242.16	355.53	-798.97	230.58	376.13	-755.13	308.17	376.28	-750.4	121.09	360.14	-727.73	142.83	274.34	-797.93	71.807	299.05	-775.12	48.139	270.04	-785.69	41.317	333.53	-628.57	84.874	398.58	-583.85	102.65	286.09	-536.56	139.78	338.66	-1099.1	705.58	64.468	-1039.3	595.24	71.878	-1104.8	618.84	74.863	-1035.7	684.06	54.777	-1094.4	512.45	85.19	-1089.7	503.83	208.24	-1212.3	353.75	90.114	-1162.3	254.43	94.529	-1220.5	276.37	99.272	-1154.7	330.33	85.135	-1216.4	109.85	121.83	-1208.3	118.04	212.69	-1292.9	81.145	165.15	-1286.5	53.725	197.27	-1288.8	54.724	135.88	-1106.2	43.328	97.053	-1074.8	42.524	213.61	-1016.3	50.528	164.11	-1051.5	1545.8	215.79	-1137.1	1291.3	195.46
114	0.47083	-867.79	1270.3	222.22	-1003.5	1500.8	390.38	-984.59	1483.9	40.447	-978.18	1823.6	203.32	-897	989.4	350.78	-902.88	1001.6	101.71	-1111.4	1023.3	263.5	-1106.5	1031.3	183.04	-977.27	910.36	423.31	-1034.2	925.12	45.584	-984.1	1082.5	399.14	-1003	1084.5	62.3	-1131.9	986.64	222.66	-886.25	664.67	414.83	-786.55	616.99	377.44	-852.08	581.09	399.59	-819.98	721.47	397.89	-802.98	530.16	390.01	-820.62	515.01	261.29	-809.97	296.31	389.42	-719.67	243.13	355.95	-787.65	230.05	376.41	-745.46	308.6	376.7	-736.63	121.55	360.35	-714.4	143.81	274.58	-783.01	71.184	299.21	-759.7	48.013	270.23	-770.13	40.963	333.74	-613.95	87.958	398.71	-569.67	106.78	286.31	-523.21	145.01	338.89	-1095.3	705.44	64.765	-1036.1	594.78	72.117	-1101.8	618.6	75.27	-1032	683.6	54.994	-1091.7	512.24	85.311	-1087	503.55	208.37	-1210.4	354.29	90.177	-1161.2	254.59	94.64	-1219.3	276.83	99.491	-1153.1	330.45	85.247	-1216.2	110.19	121.96	-1207.9	118.41	212.81	-1292.8	81.79	165.34	-1286.4	54.293	197.41	-1288.7	55.319	136.03	-1106.2	43.314	97.116	-1074.7	42.416	213.63	-1016.2	50.283	164.12	-1045.9	1544.9	216.16	-1131.2	1290.3	195.68
